<?xml version="1.0" encoding="UTF-8"?>
<svg xmlns="http://www.w3.org/2000/svg" xmlns:xlink="http://www.w3.org/1999/xlink" width="40px" height="40px" viewBox="0 0 40 40" version="1.1">
<g id="surface1">
<path style=" stroke:none;fill-rule:nonzero;fill:rgb(40.392157%,56.470588%,92.156863%);fill-opacity:1;" d="M 3.582031 34.929688 C 3.582031 34.820312 19.027344 5.496094 19.546875 4.621094 L 19.90625 4.015625 L 20.296875 4.699219 C 20.511719 5.074219 22.085938 8.066406 23.796875 11.347656 C 25.503906 14.628906 28.953125 21.222656 31.457031 26.003906 C 34.972656 32.710938 35.964844 34.726562 35.800781 34.828125 C 35.683594 34.902344 34.277344 34.964844 32.671875 34.964844 L 29.757812 34.96875 L 28.898438 34.097656 C 26.742188 31.917969 22.972656 29.9375 18.757812 28.777344 L 16.871094 28.257812 L 19.230469 28.140625 C 21.445312 28.027344 23.945312 28.101562 25.3125 28.320312 C 25.769531 28.394531 25.914062 28.363281 25.914062 28.195312 C 25.914062 27.78125 20.132812 17.234375 19.90625 17.234375 C 19.738281 17.234375 18.570312 19.261719 14.039062 27.433594 C 11.8125 31.449219 9.980469 34.75 9.964844 34.765625 C 9.898438 34.847656 3.582031 35.007812 3.582031 34.929688 Z M 3.582031 34.929688 "/>
</g>
</svg>
