<?xml version="1.0" encoding="UTF-8" standalone="no"?>
<svg
   height="40"
   width="40"
   version="1.1"
   viewBox="0 0 40 40"
   id="svg4"
   sodipodi:docname="spotify.svg"
   inkscape:version="1.1.1 (3bf5ae0d25, 2021-09-20, custom)"
   xmlns:inkscape="http://www.inkscape.org/namespaces/inkscape"
   xmlns:sodipodi="http://sodipodi.sourceforge.net/DTD/sodipodi-0.dtd"
   xmlns="http://www.w3.org/2000/svg"
   xmlns:svg="http://www.w3.org/2000/svg">
  <defs
     id="defs8" />
  <sodipodi:namedview
     id="namedview6"
     pagecolor="#505050"
     bordercolor="#eeeeee"
     borderopacity="1"
     inkscape:pageshadow="0"
     inkscape:pageopacity="0"
     inkscape:pagecheckerboard="0"
     showgrid="false"
     inkscape:zoom="24.209989"
     inkscape:cx="29.058253"
     inkscape:cy="26.373411"
     inkscape:window-width="1920"
     inkscape:window-height="1139"
     inkscape:window-x="1440"
     inkscape:window-y="0"
     inkscape:window-maximized="1"
     inkscape:current-layer="svg4" />
  <path
     fill="#1ed760"
     d="M 19.999881,4.775e-4 C 8.954486,4.775e-4 0,8.9547247 0,20.000119 0,31.045991 8.954486,39.999522 19.999881,39.999522 31.046469,39.999522 40,31.045991 40,20.000119 40,8.9554412 31.046469,0.0014328 19.999642,0.0014328 Z m 9.171816,28.8452235 c -0.358237,0.587508 -1.127252,0.773791 -1.71476,0.413166 C 22.76117,26.390585 16.849785,25.740982 9.888051,27.331553 9.217193,27.484401 8.5484844,27.06407 8.3956367,26.392973 8.2420725,25.721876 8.6607319,25.053168 9.3332617,24.90032 16.951763,23.159051 23.486718,23.909198 28.758531,27.130941 c 0.587508,0.360625 0.773791,1.127252 0.413166,1.71476 z m 2.447951,-5.446393 c -0.451378,0.734385 -1.411453,0.966045 -2.144644,0.514667 -5.37594,-3.305093 -13.570725,-4.262062 -19.9294273,-2.331883 -0.824661,0.249094 -1.695654,-0.215658 -1.9459421,-1.038886 -0.2483775,-0.824661 0.2166138,-1.693983 1.0398419,-1.944748 7.2633695,-2.203873 16.2930855,-1.136327 22.4666985,2.6574 0.733192,0.451378 0.964851,1.411453 0.513473,2.143689 z m 0.210166,-5.670649 C 25.38394,13.900063 14.749085,13.548036 8.5948163,15.415882 7.6065605,15.715607 6.5614645,15.157713 6.2619785,14.169457 5.9624926,13.180724 6.519909,12.136344 7.5088813,11.835903 14.573549,9.6912595 26.317744,10.105619 33.738977,14.511215 c 0.890815,0.527563 1.182181,1.675593 0.654379,2.563304 -0.525414,0.888904 -1.676548,1.181942 -2.562587,0.65414 z"
     id="path2"
     style="stroke-width:0.238825" />
</svg>
