<svg fill="none" height="20" viewBox="0 0 79 20" width="79" xmlns="http://www.w3.org/2000/svg"><g fill="rgba(4, 4, 5, 1)"><path d="m9.03202 18.0001h4.17598l-3.45598-6.888c2.08798-.744 3.35998-2.49601 3.35998-4.80001 0-3.024-2.16-5.328004-5.51998-5.328004h-6.743998v17.016014h3.791998v-6.336h1.344zm-4.392-9.60001v-4.128h2.232c1.56 0 2.4.792 2.4 2.064 0 1.2-.84 2.064-2.4 2.064z"></path><path d="m14.724 14.7121c0 1.896 1.512 3.624 4.128 3.624 1.584 0 2.736-.672 3.36-1.68 0 .816.096 1.248.12 1.344h3.288c-.024-.12-.144-.912-.144-1.848v-5.832c0-2.44801-1.416-4.60801-5.28-4.60801-3.504 0-5.088 2.256-5.232 3.96l3.168.64801c.072-.88801.768-1.75201 2.04-1.75201 1.152 0 1.752.6 1.752 1.296 0 .40801-.216.72001-.864.81601l-2.808.432c-1.968.288-3.528 1.488-3.528 3.6zm5.016.984c-1.008 0-1.416-.6-1.416-1.224 0-.84.576-1.2 1.344-1.32l2.256-.36v.528c0 1.848-1.104 2.376-2.184 2.376z"></path><path d="m36.1295 6.07209c-.24-.072-.6-.12-.96-.12-.96 0-2.472.384-3.096 1.728v-1.608h-3.528v11.92801h3.648v-5.208c0-2.376 1.32-3.24001 2.784-3.24001.36 0 .744.024 1.152.12z"></path><path d="m41.9904 18.0001v-11.92801h-3.648v11.92801zm-3.96-15.57601c0 1.176.96 2.136 2.112 2.136 1.2 0 2.16-.96 2.16-2.136s-.96-2.136004-2.16-2.136004c-1.152 0-2.112.960004-2.112 2.136004z"></path><path d="m48.7141 18.0001v-1.344c.552.912 1.776 1.608 3.36 1.608 3.336 0 5.688-2.616 5.688-6.264 0-3.57601-2.088-6.21601-5.544-6.21601-1.632 0-2.9519.672-3.456 1.416v-6.576004h-3.576v17.376014zm5.4-5.976c0 1.992-1.272 2.976-2.688 2.976s-2.712-1.008-2.712-2.976c0-2.016 1.296-2.95201 2.712-2.95201s2.688.93601 2.688 2.95201z"></path><path d="m63.7638 18.0001v-17.376014h-3.648v17.376014z"></path><path d="m69.743 10.6081c.072-.88801.84-2.01601 2.376-2.01601 1.728 0 2.352 1.104 2.4 2.01601zm5.04 3.096c-.336.936-1.08 1.56-2.4 1.56-1.416 0-2.64-.96-2.712-2.304h8.304c.024-.072.072-.624.072-1.128 0-3.84001-2.28-6.12001-5.976-6.12001-3.096 0-5.952 2.448-5.952 6.28801 0 4.008 2.928 6.36 6.216 6.36 3.024 0 4.92-1.728 5.496-3.792z"></path></g></svg>